<?xml version="1.0" encoding="UTF-8" standalone="no"?>
<!DOCTYPE svg PUBLIC "-//W3C//DTD SVG 1.1//EN"
 "http://www.w3.org/Graphics/SVG/1.1/DTD/svg11.dtd">
<!-- Generated by graphviz version 2.38.0 (20140413.2041)
 -->
<!-- Title: HelloWorld Pages: 1 -->
<svg width="456pt" height="203pt"
 viewBox="0.00 0.00 456.00 203.00" xmlns="http://www.w3.org/2000/svg" xmlns:xlink="http://www.w3.org/1999/xlink">
<g id="graph0" class="graph" transform="scale(1 1) rotate(0) translate(4 199)">
<title>HelloWorld</title>
<polygon fill="white" stroke="none" points="-4,4 -4,-199 452,-199 452,4 -4,4"/>
<g id="clust1" class="cluster"><title>cluster_project</title>
<polygon fill="#ffffff" stroke="black" points="8,-8 8,-187 440,-187 440,-8 8,-8"/>
<text text-anchor="middle" x="401.5" y="-15" font-family="Courier,monospace" font-size="10.00">HelloWorld</text>
</g>
<!-- dm_document -->
<g id="node1" class="node"><title>dm_document</title>
<polygon fill="#ffffff" stroke="black" stroke-width="2" points="316,-125 242,-125 242,-89 316,-89 316,-125"/>
<text text-anchor="middle" x="279" y="-105.1" font-family="Courier,monospace" font-size="8.00" fill="#000000">dm_document</text>
</g>
<!-- dm_sysobject -->
<g id="node2" class="node"><title>dm_sysobject</title>
<polygon fill="#ffffff" stroke="black" stroke-width="2" points="432,-125 352,-125 352,-89 432,-89 432,-125"/>
<text text-anchor="middle" x="392" y="-105.1" font-family="Courier,monospace" font-size="8.00" fill="#000000">dm_sysobject</text>
</g>
<!-- dm_document&#45;&gt;dm_sysobject -->
<g id="edge1" class="edge"><title>dm_document&#45;&gt;dm_sysobject</title>
<path fill="none" stroke="black" d="M316.039,-107C324.139,-107 332.874,-107 341.419,-107"/>
<polygon fill="black" stroke="black" points="341.692,-110.5 351.692,-107 341.692,-103.5 341.692,-110.5"/>
</g>
<!-- dm_folder -->
<g id="node3" class="node"><title>dm_folder</title>
<polygon fill="#ffffff" stroke="black" stroke-width="2" points="311,-179 247,-179 247,-143 311,-143 311,-179"/>
<text text-anchor="middle" x="279" y="-159.1" font-family="Courier,monospace" font-size="8.00" fill="#000000">dm_folder</text>
</g>
<!-- dm_folder&#45;&gt;dm_sysobject -->
<g id="edge2" class="edge"><title>dm_folder&#45;&gt;dm_sysobject</title>
<path fill="none" stroke="black" d="M311.215,-145.814C321.535,-140.794 333.25,-135.095 344.464,-129.639"/>
<polygon fill="black" stroke="black" points="346.263,-132.656 353.724,-125.134 343.2,-126.362 346.263,-132.656"/>
</g>
<!-- ie_small_fry -->
<g id="node4" class="node"><title>ie_small_fry</title>
<g id="a_node4"><a xlink:href="http://github.com/lastnitescurry/documentum-composer-documentation/blob/master/HelloWorld/src/site/markdown/Types/ie_small_fry.md" xlink:title="ie_small_fry">
<polygon fill="#ffffff" stroke="black" stroke-width="2" points="96,-125 16,-125 16,-89 96,-89 96,-125"/>
<text text-anchor="middle" x="56" y="-105.1" font-family="Courier,monospace" font-size="8.00" fill="#000000">ie_small_fry</text>
</a>
</g>
</g>
<!-- ie_document -->
<g id="node5" class="node"><title>ie_document</title>
<g id="a_node5"><a xlink:href="http://github.com/lastnitescurry/documentum-composer-documentation/blob/master/HelloWorld/src/site/markdown/Types/ie_document.md" xlink:title="ie_document">
<polygon fill="#ffffff" stroke="black" stroke-width="2" points="206,-125 132,-125 132,-89 206,-89 206,-125"/>
<text text-anchor="middle" x="169" y="-105.1" font-family="Courier,monospace" font-size="8.00" fill="#000000">ie_document</text>
</a>
</g>
</g>
<!-- ie_small_fry&#45;&gt;ie_document -->
<g id="edge3" class="edge"><title>ie_small_fry&#45;&gt;ie_document</title>
<path fill="none" stroke="black" d="M96.1344,-107C104.388,-107 113.172,-107 121.662,-107"/>
<polygon fill="black" stroke="black" points="121.816,-110.5 131.816,-107 121.816,-103.5 121.816,-110.5"/>
</g>
<!-- ie_document&#45;&gt;dm_document -->
<g id="edge4" class="edge"><title>ie_document&#45;&gt;dm_document</title>
<path fill="none" stroke="black" d="M206.263,-107C214.366,-107 223.069,-107 231.521,-107"/>
<polygon fill="black" stroke="black" points="231.649,-110.5 241.649,-107 231.649,-103.5 231.649,-110.5"/>
</g>
<!-- documentum -->
<g id="node6" class="node"><title>documentum</title>
<g id="a_node6"><a xlink:href="http://github.com/lastnitescurry/documentum-composer-documentation/blob/master/HelloWorld/src/site/markdown/Types/documentum.md" xlink:title="documentum">
<polygon fill="#ffffff" stroke="black" stroke-width="2" points="313.5,-71 244.5,-71 244.5,-35 313.5,-35 313.5,-71"/>
<text text-anchor="middle" x="279" y="-51.1" font-family="Courier,monospace" font-size="8.00" fill="#000000">documentum</text>
</a>
</g>
</g>
<!-- documentum&#45;&gt;dm_sysobject -->
<g id="edge5" class="edge"><title>documentum&#45;&gt;dm_sysobject</title>
<path fill="none" stroke="black" d="M313.605,-69.3483C323.377,-74.1021 334.227,-79.3806 344.636,-84.4446"/>
<polygon fill="black" stroke="black" points="343.108,-87.5936 353.632,-88.821 346.171,-81.2989 343.108,-87.5936"/>
</g>
<!-- emc -->
<g id="node7" class="node"><title>emc</title>
<g id="a_node7"><a xlink:href="http://github.com/lastnitescurry/documentum-composer-documentation/blob/master/HelloWorld/src/site/markdown/Types/emc.md" xlink:title="emc">
<polygon fill="#ffffff" stroke="black" stroke-width="2" points="196,-71 142,-71 142,-35 196,-35 196,-71"/>
<text text-anchor="middle" x="169" y="-51.1" font-family="Courier,monospace" font-size="8.00" fill="#000000">emc</text>
</a>
</g>
</g>
<!-- emc&#45;&gt;documentum -->
<g id="edge6" class="edge"><title>emc&#45;&gt;documentum</title>
<path fill="none" stroke="black" d="M196.144,-53C207.572,-53 221.292,-53 234.205,-53"/>
<polygon fill="black" stroke="black" points="234.328,-56.5001 244.328,-53 234.328,-49.5001 234.328,-56.5001"/>
</g>
<!-- opentext -->
<g id="node8" class="node"><title>opentext</title>
<g id="a_node8"><a xlink:href="http://github.com/lastnitescurry/documentum-composer-documentation/blob/master/HelloWorld/src/site/markdown/Types/opentext.md" xlink:title="opentext">
<polygon fill="#ffffff" stroke="black" stroke-width="2" points="85.5,-71 26.5,-71 26.5,-35 85.5,-35 85.5,-71"/>
<text text-anchor="middle" x="56" y="-51.1" font-family="Courier,monospace" font-size="8.00" fill="#000000">opentext</text>
</a>
</g>
</g>
<!-- opentext&#45;&gt;emc -->
<g id="edge7" class="edge"><title>opentext&#45;&gt;emc</title>
<path fill="none" stroke="black" d="M85.5853,-53C99.5414,-53 116.493,-53 131.386,-53"/>
<polygon fill="black" stroke="black" points="131.793,-56.5001 141.793,-53 131.793,-49.5001 131.793,-56.5001"/>
</g>
</g>
</svg>
